<svg width="113.334" height="124" viewBox="0 0 85 93" xmlns="http://www.w3.org/2000/svg"><path stroke="#000" d="M54.893 22.317c-.588 2.748-1.185 5.3-4.017 6.645-4.155 1.963-7.31-2.572-5.997-6.645 2.244-6.919 9.936-8.421 14.492-2.836 4.135 5.054 2.528 13.799-1.871 18.206-8.28 8.293-16.041 1.492-22.204.697-2.675-.354-7.232.52-9.799 1.393-11.749 3.966-12.16 15.566-14.404 20.817-1.784 4.181-4.929 5.938-7.232 10.796C.814 77.819 1 85.082 1 92.001h2.94c.441-9.098 2.822-17.735 12.738-19.629l-2.518 7.852c-.676 4.141 4.517 11.757 4.576 11.777h1.861c-.587-2.925-1.94-6.968-1.185-9.815 2.097-7.93 19.166-22.868 27.427-15.399 5.673 5.133 4.135 17.991 4.135 25.214h4.899c0-8.146.676-16.695 2.94-24.536l2.939 24.536h3.92c0-21.69 4.331-19.992 6.575-37.295.793-6.086-.079-9.913-.529-15.704-.725-9.422 4.409-7.498 10.612-5.889 1.979-7.871-2.215-8.509-6.036-14.015-2.479-3.563-2.793-8.656-10.622-13.24-10.926-6.399-26.026-1.325-30.563 10.57-3.635 9.55.765 21.691 11.945 22.456 9.407.648 16.609-11.287 7.839-16.567zm15.992-1.894c.97.029 1.342.402 1.342.402s.549.422.549 1.257c0 .962-.314 1.344-.314 1.344-.441.305-.784.481-1.293.54-1.019.128-1.431-.01-1.744-.402-.373-.383-.588-.609-.588-1.531-.01-.57.166-.727.519-1.266 0 0 .421-.373 1.529-.344zM25.007 55.932" fill="#dcd5e2" stroke-width="2"/></svg>